<svg width="33" height="33" viewBox="0 0 33 33" fill="none" xmlns="http://www.w3.org/2000/svg">
<path fill-rule="evenodd" clip-rule="evenodd" d="M1.71875 9.625C1.71875 5.25849 5.25849 1.71875 9.625 1.71875H23.375C27.7414 1.71875 31.2812 5.25849 31.2812 9.625V23.375C31.2812 27.7414 27.7414 31.2812 23.375 31.2812H9.625C5.25849 31.2812 1.71875 27.7414 1.71875 23.375V9.625ZM9.96875 18.5625C10.918 18.5625 11.6875 17.7931 11.6875 16.8438C11.6875 15.8945 10.918 15.125 9.96875 15.125C9.01951 15.125 8.25 15.8945 8.25 16.8438C8.25 17.7931 9.01951 18.5625 9.96875 18.5625ZM18.5625 16.8438C18.5625 17.7931 17.7931 18.5625 16.8438 18.5625C15.8945 18.5625 15.125 17.7931 15.125 16.8438C15.125 15.8945 15.8945 15.125 16.8438 15.125C17.7931 15.125 18.5625 15.8945 18.5625 16.8438ZM23.7188 18.5625C24.6681 18.5625 25.4375 17.7931 25.4375 16.8438C25.4375 15.8945 24.6681 15.125 23.7188 15.125C22.7694 15.125 22 15.8945 22 16.8438C22 17.7931 22.7694 18.5625 23.7188 18.5625ZM11.6875 9.96875C11.6875 10.918 10.918 11.6875 9.96875 11.6875C9.01951 11.6875 8.25 10.918 8.25 9.96875C8.25 9.01951 9.01951 8.25 9.96875 8.25C10.918 8.25 11.6875 9.01951 11.6875 9.96875ZM16.8438 11.6875C17.7931 11.6875 18.5625 10.918 18.5625 9.96875C18.5625 9.01951 17.7931 8.25 16.8438 8.25C15.8945 8.25 15.125 9.01951 15.125 9.96875C15.125 10.918 15.8945 11.6875 16.8438 11.6875ZM25.4375 9.96875C25.4375 10.918 24.6681 11.6875 23.7188 11.6875C22.7694 11.6875 22 10.918 22 9.96875C22 9.01951 22.7694 8.25 23.7188 8.25C24.6681 8.25 25.4375 9.01951 25.4375 9.96875ZM9.96875 25.4375C10.918 25.4375 11.6875 24.6681 11.6875 23.7188C11.6875 22.7694 10.918 22 9.96875 22C9.01951 22 8.25 22.7694 8.25 23.7188C8.25 24.6681 9.01951 25.4375 9.96875 25.4375ZM18.5625 23.7188C18.5625 24.6681 17.7931 25.4375 16.8438 25.4375C15.8945 25.4375 15.125 24.6681 15.125 23.7188C15.125 22.7694 15.8945 22 16.8438 22C17.7931 22 18.5625 22.7694 18.5625 23.7188ZM23.7188 25.4375C24.6681 25.4375 25.4375 24.6681 25.4375 23.7188C25.4375 22.7694 24.6681 22 23.7188 22C22.7694 22 22 22.7694 22 23.7188C22 24.6681 22.7694 25.4375 23.7188 25.4375Z" fill="white"/>
</svg>
