<svg width="24" height="25" viewBox="0 0 24 25" fill="none" xmlns="http://www.w3.org/2000/svg">
<g clip-path="url(#clip0_4_41)">
<path d="M24 12.3077C24 5.51034 18.6274 0 12 0C5.37258 0 0 5.51034 0 12.3077C0 19.105 5.37258 24.6154 12 24.6154C18.6274 24.6154 24 19.105 24 12.3077Z" fill="#9F9F9F"/>
<path d="M24 12.3077C24 5.51034 18.6274 0 12 0C5.37258 0 0 5.51034 0 12.3077C0 19.105 5.37258 24.6154 12 24.6154C18.6274 24.6154 24 19.105 24 12.3077Z" fill="#9F9F9F"/>
<path d="M5.39368 12.0364C8.88334 10.4442 11.2103 9.39461 12.3746 8.88747C15.699 7.4395 16.3897 7.18798 16.84 7.17959C16.939 7.17784 17.1604 7.20354 17.3038 7.32541C17.4249 7.42832 17.4583 7.56733 17.4742 7.66489C17.4901 7.76246 17.51 7.98471 17.4942 8.15838C17.3141 10.1405 16.5346 14.9507 16.138 17.1708C15.9702 18.1102 15.6398 18.4251 15.3199 18.4559C14.6248 18.523 14.0969 17.9749 13.4236 17.5127C12.3701 16.7895 11.7749 16.3393 10.7522 15.6336C9.57034 14.818 10.3365 14.3697 11.01 13.6371C11.1863 13.4453 14.2492 10.528 14.3084 10.2633C14.3159 10.2302 14.3227 10.1069 14.2527 10.0417C14.1828 9.97656 14.0794 9.99884 14.0049 10.0165C13.8992 10.0417 12.2162 11.2066 8.95566 13.5114C8.47792 13.855 8.04521 14.0224 7.6575 14.0136C7.23009 14.0039 6.40793 13.7605 5.79673 13.5524C5.04708 13.2972 4.45127 13.1624 4.50315 12.7289C4.53017 12.5032 4.82702 12.2724 5.39368 12.0364Z" fill="white"/>
</g>
<defs>
<clipPath id="clip0_4_41">
<rect width="24" height="24.6154" fill="white"/>
</clipPath>
</defs>
</svg>
