<svg width="24" height="25" viewBox="0 0 24 25" fill="none" xmlns="http://www.w3.org/2000/svg">
<g clip-path="url(#clip0_4_45)">
<path d="M24 12.6923C24 5.89499 18.6274 0.384644 12 0.384644C5.37258 0.384644 0 5.89499 0 12.6923C0 19.4897 5.37258 25 12 25C18.6274 25 24 19.4897 24 12.6923Z" fill="#9F9F9F"/>
<path d="M9.50089 12.6923C9.50089 11.2762 10.6198 10.128 12.0005 10.128C13.3811 10.128 14.5007 11.2762 14.5007 12.6923C14.5007 14.1084 13.3811 15.2566 12.0005 15.2566C10.6198 15.2566 9.50089 14.1084 9.50089 12.6923ZM8.14933 12.6923C8.14933 14.8738 9.87349 16.6423 12.0005 16.6423C14.1275 16.6423 15.8516 14.8738 15.8516 12.6923C15.8516 10.5108 14.1275 8.7424 12.0005 8.7424C9.87349 8.7424 8.14933 10.5108 8.14933 12.6923ZM15.1041 8.58578C15.104 8.76835 15.1568 8.94684 15.2556 9.09868C15.3544 9.25052 15.4949 9.36889 15.6594 9.43882C15.8238 9.50876 16.0047 9.52711 16.1793 9.49157C16.3539 9.45602 16.5143 9.36817 16.6402 9.23913C16.7662 9.11008 16.8519 8.94564 16.8867 8.7666C16.9215 8.58756 16.9038 8.40195 16.8357 8.23325C16.7677 8.06455 16.6524 7.92034 16.5044 7.81885C16.3565 7.71736 16.1825 7.66315 16.0045 7.66308C15.7659 7.66319 15.5367 7.76043 15.368 7.93344C15.1992 8.10644 15.1043 8.34107 15.1041 8.58578ZM8.97049 18.9536C8.23927 18.9195 7.84183 18.7946 7.57771 18.689C7.22755 18.5492 6.97771 18.3827 6.71503 18.1136C6.45235 17.8446 6.28975 17.5886 6.15403 17.2294C6.05107 16.9587 5.92927 16.551 5.89603 15.801C5.85967 14.9902 5.85241 14.7466 5.85241 12.6924C5.85241 10.6382 5.86027 10.3953 5.89603 9.58375C5.92933 8.83378 6.05203 8.42683 6.15403 8.15526C6.29035 7.79612 6.45271 7.53988 6.71503 7.27046C6.97735 7.00105 7.22695 6.83428 7.57771 6.69508C7.84171 6.58948 8.23927 6.46455 8.97049 6.43046C9.76105 6.39317 9.99853 6.38572 12.0005 6.38572C14.0024 6.38572 14.2402 6.39378 15.0314 6.43046C15.7626 6.46462 16.1594 6.59046 16.4242 6.69508C16.7743 6.83428 17.0242 7.00142 17.2868 7.27046C17.5495 7.53951 17.7115 7.79612 17.8478 8.15526C17.9508 8.42603 18.0726 8.83378 18.1058 9.58375C18.1422 10.3953 18.1495 10.6382 18.1495 12.6924C18.1495 14.7466 18.1422 14.9894 18.1058 15.801C18.0725 16.551 17.9501 16.9586 17.8478 17.2294C17.7115 17.5886 17.5492 17.8448 17.2868 18.1136C17.0245 18.3825 16.7743 18.5492 16.4242 18.689C16.1602 18.7947 15.7626 18.9196 15.0314 18.9536C14.2408 18.991 14.0033 18.9984 12.0005 18.9984C9.99763 18.9984 9.76081 18.991 8.97049 18.9536ZM8.90839 5.04658C8.10997 5.08388 7.56439 5.21372 7.08793 5.40388C6.59449 5.60025 6.17677 5.86369 5.75935 6.29114C5.34193 6.71858 5.08573 7.14769 4.89427 7.65378C4.70887 8.14277 4.58227 8.70203 4.54591 9.52092C4.50895 10.3411 4.50049 10.6033 4.50049 12.6923C4.50049 14.7813 4.50895 15.0435 4.54591 15.8637C4.58227 16.6827 4.70887 17.2418 4.89427 17.7309C5.08573 18.2366 5.34199 18.6663 5.75935 19.0934C6.17671 19.5207 6.59449 19.7838 7.08793 19.9807C7.56529 20.1709 8.10997 20.3007 8.90839 20.3381C9.70849 20.3753 9.96373 20.3846 12.0005 20.3846C14.0372 20.3846 14.2929 20.3759 15.0926 20.3381C15.8911 20.3007 16.4363 20.1709 16.913 19.9807C17.4062 19.7838 17.8242 19.5209 18.2416 19.0934C18.659 18.6661 18.9147 18.2366 19.1067 17.7309C19.2921 17.2418 19.4193 16.6826 19.4551 15.8637C19.4914 15.0429 19.4999 14.7813 19.4999 12.6923C19.4999 10.6033 19.4914 10.3411 19.4551 9.52092C19.4187 8.70197 19.2921 8.14246 19.1067 7.65378C18.9147 7.148 18.6584 6.71926 18.2416 6.29114C17.8249 5.86302 17.4062 5.60025 16.9136 5.40388C16.4363 5.21372 15.891 5.08326 15.0932 5.04658C14.2935 5.00929 14.0378 5 12.0011 5C9.96433 5 9.70849 5.00868 8.90839 5.04658Z" fill="white"/>
</g>
<defs>
<clipPath id="clip0_4_45">
<rect width="24" height="24.6154" fill="white" transform="translate(0 0.384644)"/>
</clipPath>
</defs>
</svg>
