<svg width="35" height="35" viewBox="0 0 35 35" fill="none" xmlns="http://www.w3.org/2000/svg">
<g clip-path="url(#clip0_2_47)">
<path d="M0.826327 12.1741C0.290254 13.8535 -6.83471e-05 15.6426 1.20691e-08 17.5C-6.83471e-05 19.3573 0.290322 21.1465 0.826395 22.8261L17.5 23.5871L34.1736 22.8263C34.7095 21.1467 35 19.3573 35 17.5001C35 15.6428 34.7096 13.8535 34.1736 12.174L17.5 11.4131L0.826327 12.1741Z" fill="#F0F0F0"/>
<path d="M34.1734 12.174L17.4999 11.4131L0.826155 12.174C0.667288 12.6719 0.530501 13.1796 0.415863 13.6957H34.5835C34.4689 13.1796 34.3322 12.6718 34.1734 12.174Z" fill="#D80027"/>
<path d="M0.415863 21.3046C0.530366 21.8207 0.667151 22.3284 0.826019 22.8263L0.82766 22.8264L17.4996 23.5872L34.1731 22.8264C34.332 22.3284 34.4687 21.8207 34.5834 21.3046H0.415863Z" fill="#D80027"/>
<path d="M17.5003 35.0003C25.3079 35.0003 31.9203 29.8868 34.1739 22.8263H0.826721C3.08019 29.8868 9.69271 35.0003 17.5003 35.0003Z" fill="#6DA544"/>
<path d="M17.4996 6.8538e-10C9.69201 6.83604e-05 3.07962 5.11357 0.826019 12.174L34.1731 12.174C31.9197 5.1135 25.3073 -6.83589e-05 17.4996 6.8538e-10Z" fill="#338AF3"/>
<path d="M7.99716 7.22849C7.99716 5.58942 9.14908 4.22018 10.6874 3.88427C10.451 3.83258 10.2056 3.80463 9.95366 3.80463C8.06271 3.80463 6.52975 5.33752 6.52975 7.22854C6.52975 9.11958 8.06258 10.6525 9.95366 10.6525C10.2056 10.6525 10.4509 10.6244 10.6874 10.5728C9.14914 10.2368 7.99716 8.86754 7.99716 7.22849Z" fill="#F0F0F0"/>
<path d="M12.7112 8.78491L12.943 9.49824H13.693L13.0863 9.93915L13.318 10.6525L12.7112 10.2116L12.1043 10.6525L12.3362 9.93915L11.7293 9.49824H12.4794L12.7112 8.78491Z" fill="#F0F0F0"/>
<path d="M15.1051 8.78491L15.3369 9.49824H16.087L15.4801 9.93915L15.7119 10.6525L15.1051 10.2116L14.4983 10.6525L14.73 9.93915L14.1233 9.49824H14.8733L15.1051 8.78491Z" fill="#F0F0F0"/>
<path d="M17.4993 8.78491L17.731 9.49824H18.481L17.8742 9.93915L18.1059 10.6525L17.4993 10.2116L16.8923 10.6525L17.1242 9.93915L16.5174 9.49824H17.2674L17.4993 8.78491Z" fill="#F0F0F0"/>
<path d="M19.8933 8.78491L20.125 9.49824H20.875L20.2682 9.93915L20.5001 10.6525L19.8933 10.2116L19.2863 10.6525L19.5182 9.93915L18.9114 9.49824H19.6614L19.8933 8.78491Z" fill="#F0F0F0"/>
<path d="M22.2871 8.78491L22.5189 9.49824H23.269L22.6622 9.93915L22.8939 10.6525L22.2871 10.2116L21.6803 10.6525L21.912 9.93915L21.3054 9.49824H22.0552L22.2871 8.78491Z" fill="#F0F0F0"/>
<path d="M15.1051 6.29474L15.3369 7.008H16.087L15.4801 7.44898L15.7119 8.16225L15.1051 7.7214L14.4983 8.16225L14.73 7.44898L14.1233 7.008H14.8733L15.1051 6.29474Z" fill="#F0F0F0"/>
<path d="M17.4993 6.29474L17.731 7.008H18.481L17.8742 7.44898L18.1059 8.16225L17.4993 7.7214L16.8923 8.16225L17.1242 7.44898L16.5174 7.008H17.2674L17.4993 6.29474Z" fill="#F0F0F0"/>
<path d="M19.8933 6.29474L20.125 7.008H20.875L20.2682 7.44898L20.5001 8.16225L19.8933 7.7214L19.2863 8.16225L19.5182 7.44898L18.9114 7.008H19.6614L19.8933 6.29474Z" fill="#F0F0F0"/>
<path d="M22.2871 6.29474L22.5189 7.008H23.269L22.6622 7.44898L22.8939 8.16225L22.2871 7.7214L21.6803 8.16225L21.912 7.44898L21.3054 7.008H22.0552L22.2871 6.29474Z" fill="#F0F0F0"/>
<path d="M17.4993 3.80463L17.731 4.51803H18.481L17.8742 4.95887L18.1059 5.67227L17.4993 5.23143L16.8923 5.67227L17.1242 4.95887L16.5174 4.51803H17.2674L17.4993 3.80463Z" fill="#F0F0F0"/>
<path d="M19.8933 3.80463L20.125 4.51803H20.875L20.2682 4.95887L20.5001 5.67227L19.8933 5.23143L19.2863 5.67227L19.5182 4.95887L18.9114 4.51803H19.6614L19.8933 3.80463Z" fill="#F0F0F0"/>
<path d="M22.2871 3.80463L22.5189 4.51803H23.269L22.6622 4.95887L22.8939 5.67227L22.2871 5.23143L21.6803 5.67227L21.912 4.95887L21.3054 4.51803H22.0552L22.2871 3.80463Z" fill="#F0F0F0"/>
</g>
<defs>
<clipPath id="clip0_2_47">
<rect width="35" height="35" fill="white"/>
</clipPath>
</defs>
</svg>
