<svg width="24" height="24" viewBox="0 0 24 24" fill="none" xmlns="http://www.w3.org/2000/svg">
<g clip-path="url(#clip0_4_53)">
<path d="M20.4745 21.862C18.1293 24.2071 12.1234 22.0036 7.05994 16.9401C1.99648 11.8766 -0.207116 5.87074 2.13805 3.52555L3.68218 1.98143C4.74817 0.91544 6.50466 0.943618 7.60542 2.04437L9.99712 4.43608C11.0979 5.53682 11.1261 7.29333 10.0601 8.35932L9.7284 8.69098C9.15286 9.26652 9.09655 10.195 9.63134 10.8431C10.1472 11.4682 10.7033 12.0907 11.3063 12.6937C11.9092 13.2967 12.5319 13.8528 13.1569 14.3687C13.8051 14.9035 14.7335 14.8471 15.309 14.2716L15.6407 13.9399C16.7067 12.874 18.4632 12.9022 19.564 14.0029L21.9557 16.3947C23.0565 17.4954 23.0845 19.2519 22.0186 20.3178L20.4745 21.862Z" fill="#9F9F9F" stroke="#9F9F9F" stroke-width="1.5"/>
</g>
<defs>
<clipPath id="clip0_4_53">
<rect width="24" height="24" fill="white"/>
</clipPath>
</defs>
</svg>
