<svg width="35" height="35" viewBox="0 0 35 35" fill="none" xmlns="http://www.w3.org/2000/svg">
<g clip-path="url(#clip0_2_37)">
<path d="M17.5 35C27.165 35 35 27.165 35 17.5C35 7.83502 27.165 0 17.5 0C7.83502 0 0 7.83502 0 17.5C0 27.165 7.83502 35 17.5 35Z" fill="#FCEAEA"/>
<path fill-rule="evenodd" clip-rule="evenodd" d="M7.92969 15.7683C7.92969 10.5249 12.2225 6.28906 17.5 6.28906C22.7775 6.28906 27.0703 10.5249 27.0703 15.7683C27.0703 19.0293 25.1686 22.2479 23.1532 24.5907C22.1331 25.7763 21.0506 26.7772 20.0958 27.489C19.619 27.8444 19.161 28.1376 18.7474 28.3458C18.3597 28.5411 17.9169 28.7109 17.5 28.7109C17.0831 28.7109 16.6403 28.5411 16.2526 28.3458C15.839 28.1376 15.381 27.8444 14.9042 27.489C13.9494 26.7772 12.8669 25.7763 11.8468 24.5907C9.83141 22.2479 7.92969 19.0293 7.92969 15.7683ZM17.5 18.5938C15.6878 18.5938 14.2188 17.1247 14.2188 15.3125C14.2188 13.5003 15.6878 12.0312 17.5 12.0312C19.3122 12.0312 20.7812 13.5003 20.7812 15.3125C20.7812 17.1247 19.3122 18.5938 17.5 18.5938Z" fill="#E52D2B"/>
</g>
<defs>
<clipPath id="clip0_2_37">
<rect width="35" height="35" fill="white"/>
</clipPath>
</defs>
</svg>
