<svg width="35" height="35" viewBox="0 0 35 35" fill="none" xmlns="http://www.w3.org/2000/svg">
<g clip-path="url(#clip0_2_44)">
<path d="M17.5 35C27.165 35 35 27.165 35 17.5C35 7.83502 27.165 0 17.5 0C7.83502 0 0 7.83502 0 17.5C0 27.165 7.83502 35 17.5 35Z" fill="#FCEAEA"/>
<path fill-rule="evenodd" clip-rule="evenodd" d="M15.9503 6.67138C16.28 6.6246 16.6145 6.59254 16.9531 6.57587V12.5683C15.4447 12.5144 13.9875 12.2381 12.6085 11.768C13.3786 9.87869 14.5189 8.15468 15.9503 6.67138ZM12.2319 12.7954C13.7274 13.3077 15.3112 13.608 16.9531 13.6627V16.953H11.494C11.5455 15.5127 11.7998 14.1189 12.2319 12.7954ZM10.3996 16.953C10.4522 15.3747 10.7317 13.8502 11.2084 12.406C10.3189 12.0334 9.46513 11.5842 8.65401 11.0661C7.43891 12.7339 6.684 14.7584 6.57593 16.953H10.3996ZM6.57593 18.0468H10.3996C10.4522 19.6251 10.7317 21.1497 11.2084 22.5938C10.3189 22.9665 9.46513 23.4157 8.654 23.9338C7.43891 22.2659 6.684 20.2414 6.57593 18.0468ZM11.494 18.0468H16.9531V21.3371C15.3112 21.3919 13.7274 21.6921 12.2319 22.2046C11.7998 20.881 11.5455 19.4871 11.494 18.0468ZM18.0469 18.0468V21.3371C19.6887 21.3919 21.2723 21.6921 22.7678 22.2046C23.1999 20.881 23.4542 19.4871 23.5057 18.0468H18.0469ZM24.6001 18.0468C24.5475 19.6252 24.268 21.1497 23.7914 22.5938C24.6809 22.9665 25.5347 23.4157 26.3459 23.9339C27.5611 22.266 28.316 20.2415 28.424 18.0468H24.6001ZM28.424 16.953H24.6001C24.5475 15.3747 24.268 13.8502 23.7914 12.406C24.6809 12.0333 25.5347 11.5841 26.3459 11.066C27.5611 12.7338 28.316 14.7584 28.424 16.953ZM23.5057 16.953H18.0469V13.6627C19.6887 13.6079 21.2723 13.3077 22.7678 12.7954C23.1999 14.1189 23.4542 15.5127 23.5057 16.953ZM12.6085 23.2318C13.9875 22.7618 15.4447 22.4855 16.9531 22.4315V28.424C16.6145 28.4073 16.28 28.3753 15.9503 28.3285C14.519 26.8451 13.3786 25.1212 12.6085 23.2318ZM18.0469 22.4315V28.424C18.3853 28.4073 18.7197 28.3753 19.0494 28.3286C20.4808 26.8452 21.6211 25.1212 22.3912 23.2318C21.0122 22.7618 19.5552 22.4855 18.0469 22.4315ZM18.0469 6.57587V12.5683C19.5552 12.5143 21.0122 12.238 22.3912 11.768C21.6211 9.87866 20.4808 8.15465 19.0494 6.67134C18.7197 6.62458 18.3854 6.59254 18.0469 6.57587ZM23.4135 11.3783C24.1908 11.0498 24.9394 10.6585 25.6538 10.2098C24.3806 8.78659 22.74 7.69875 20.8813 7.09512C21.9291 8.39367 22.7864 9.83332 23.4135 11.3783ZM20.8813 27.9047C22.74 27.3011 24.3806 26.2133 25.6539 24.7901C24.9394 24.3413 24.1908 23.95 23.4135 23.6215C22.7864 25.1665 21.9291 26.6061 20.8813 27.9047ZM11.5862 11.3783C12.2134 9.83336 13.0705 8.39376 14.1182 7.09526C12.2596 7.69892 10.6193 8.78675 9.34605 10.2099C10.0605 10.6586 10.809 11.0499 11.5862 11.3783ZM14.1182 27.9046C12.2596 27.3009 10.6193 26.2132 9.34604 24.79C10.0605 24.3413 10.809 23.95 11.5862 23.6215C12.2134 25.1664 13.0705 26.6061 14.1182 27.9046Z" fill="#E52D2B"/>
</g>
<defs>
<clipPath id="clip0_2_44">
<rect width="35" height="35" fill="white"/>
</clipPath>
</defs>
</svg>
